<svg version="1.1" xmlns="http://www.w3.org/2000/svg" viewBox="0 0 1760 420" width="1760" height="420">
  <!-- svg-source:excalidraw -->
  
  <defs>
    <style>
      @font-face {
        font-family: "Virgil";
        src: url("https://excalidraw.com/Virgil.woff2");
      }
      @font-face {
        font-family: "Cascadia";
        src: url("https://excalidraw.com/Cascadia.woff2");
      }
    </style>
  </defs>
  <rect x="0" y="0" width="1760" height="420" fill="#ffffff"></rect><g stroke-linecap="round" transform="translate(750 260) rotate(0 140 35)"><path d="M0 0 L280 0 L280 70 L0 70" stroke="none" stroke-width="0" fill="#ffd43b"></path><path d="M0 0 C56 0, 112 0, 280 0 M0 0 C61.98 0, 123.96 0, 280 0 M280 0 C280 15.23, 280 30.45, 280 70 M280 0 C280 18.79, 280 37.58, 280 70 M280 70 C219.61 70, 159.22 70, 0 70 M280 70 C174.74 70, 69.49 70, 0 70 M0 70 C0 49.92, 0 29.85, 0 0 M0 70 C0 44.54, 0 19.07, 0 0" stroke="#e67700" stroke-width="3" fill="none"></path></g><g transform="translate(760 271) rotate(0 130 25)"><text x="130" y="NaN" font-family="Segoe UI Emoji" font-size="18px" fill="#1a1a1a" text-anchor="middle" style="white-space: pre;" direction="ltr">Generative AI for Testers</text></g><g stroke-linecap="round"><g transform="translate(890 260) rotate(0 0 -72.5)"><path d="M0 0 C0 -24.17, 0 -120.83, 0 -145 M0 0 C0 -24.17, 0 -120.83, 0 -145" stroke="#1971c2" stroke-width="2" fill="none"></path></g><g transform="translate(890 260) rotate(0 0 -72.5)"><path d="M10.26 -116.81 C8.21 -122.45, 6.16 -128.09, 0 -145 M10.26 -116.81 C7.55 -124.25, 4.84 -131.7, 0 -145" stroke="#1971c2" stroke-width="2" fill="none"></path></g><g transform="translate(890 260) rotate(0 0 -72.5)"><path d="M-10.26 -116.81 C-8.21 -122.45, -6.16 -128.09, 0 -145 M-10.26 -116.81 C-7.55 -124.25, -4.84 -131.7, 0 -145" stroke="#1971c2" stroke-width="2" fill="none"></path></g></g><g stroke-linecap="round" transform="translate(750 55) rotate(0 140 30)"><path d="M0 0 L280 0 L280 60 L0 60" stroke="none" stroke-width="0" fill="#74c0fc"></path><path d="M0 0 C56.01 0, 112.01 0, 280 0 M0 0 C79.91 0, 159.83 0, 280 0 M280 0 C280 16.2, 280 32.4, 280 60 M280 0 C280 16.41, 280 32.83, 280 60 M280 60 C206.45 60, 132.89 60, 0 60 M280 60 C194.98 60, 109.96 60, 0 60 M0 60 C0 39.17, 0 18.33, 0 0 M0 60 C0 44.7, 0 29.39, 0 0" stroke="#1971c2" stroke-width="2" fill="none"></path></g><g transform="translate(760 72) rotate(0 130 14)"><text x="130" y="NaN" font-family="Segoe UI Emoji" font-size="17px" fill="#1a1a1a" text-anchor="middle" style="white-space: pre;" direction="ltr">Tổng quan</text></g><g stroke-linecap="round"><g transform="translate(750 295) rotate(0 -127.5 -2.5)"><path d="M0 0 C-42.5 -0.83, -212.5 -4.17, -255 -5 M0 0 C-42.5 -0.83, -212.5 -4.17, -255 -5" stroke="#2f9e44" stroke-width="2" fill="none"></path></g><g transform="translate(750 295) rotate(0 -127.5 -2.5)"><path d="M-226.61 -14.71 C-232.29 -12.76, -237.97 -10.82, -255 -5 M-226.61 -14.71 C-235.93 -11.52, -245.24 -8.34, -255 -5" stroke="#2f9e44" stroke-width="2" fill="none"></path></g><g transform="translate(750 295) rotate(0 -127.5 -2.5)"><path d="M-227.02 5.81 C-232.61 3.65, -238.21 1.49, -255 -5 M-227.02 5.81 C-236.2 2.26, -245.38 -1.28, -255 -5" stroke="#2f9e44" stroke-width="2" fill="none"></path></g></g><g stroke-linecap="round" transform="translate(275 260) rotate(0 110 30)"><path d="M0 0 L220 0 L220 60 L0 60" stroke="none" stroke-width="0" fill="#b2f2bb"></path><path d="M0 0 C44.01 0, 88.01 0, 220 0 M0 0 C76.88 0, 153.76 0, 220 0 M220 0 C220 19.35, 220 38.7, 220 60 M220 0 C220 16.73, 220 33.45, 220 60 M220 60 C151.86 60, 83.73 60, 0 60 M220 60 C169.09 60, 118.19 60, 0 60 M0 60 C0 47.54, 0 35.08, 0 0 M0 60 C0 39.22, 0 18.44, 0 0" stroke="#2f9e44" stroke-width="2" fill="none"></path></g><g transform="translate(285 277) rotate(0 100 14)"><text x="100" y="NaN" font-family="Segoe UI Emoji" font-size="17px" fill="#1a1a1a" text-anchor="middle" style="white-space: pre;" direction="ltr">Sessions</text></g><g stroke-linecap="round"><g stroke-opacity="0.8" fill-opacity="0.8" transform="translate(275 290) rotate(0 -12.5 -127.5)"><path d="M0 0 C-4.17 -42.5, -20.83 -212.5, -25 -255 M0 0 C-4.17 -42.5, -20.83 -212.5, -25 -255" stroke="#2f9e44" stroke-width="1" fill="none"></path></g><g stroke-opacity="0.8" fill-opacity="0.8" transform="translate(275 290) rotate(0 -12.5 -127.5)"><path d="M-12.04 -227.94 C-14.63 -233.36, -17.22 -238.77, -25 -255 M-12.04 -227.94 C-17.12 -238.56, -22.2 -249.17, -25 -255" stroke="#2f9e44" stroke-width="1" fill="none"></path></g><g stroke-opacity="0.8" fill-opacity="0.8" transform="translate(275 290) rotate(0 -12.5 -127.5)"><path d="M-32.46 -225.94 C-30.97 -231.76, -29.48 -237.57, -25 -255 M-32.46 -225.94 C-29.54 -237.34, -26.61 -248.73, -25 -255" stroke="#2f9e44" stroke-width="1" fill="none"></path></g></g><g stroke-linecap="round" transform="translate(10 10) rotate(0 120 25)"><path d="M0 0 L240 0 L240 50 L0 50" stroke="none" stroke-width="0" fill="#d3f9d8"></path><path d="M0 0 C48.01 0, 96.02 0, 240 0 M0 0 C51.24 0, 102.49 0, 240 0 M240 0 C240 18.75, 240 37.5, 240 50 M240 0 C240 14.2, 240 28.4, 240 50 M240 50 C154.39 50, 68.77 50, 0 50 M240 50 C153.81 50, 67.62 50, 0 50 M0 50 C0 36.6, 0 23.19, 0 0 M0 50 C0 38.12, 0 26.23, 0 0" stroke="#2f9e44" stroke-width="1.5" fill="none"></path></g><g transform="translate(15 23) rotate(0 115 13)"><text x="115" y="NaN" font-family="Segoe UI Emoji" font-size="13px" fill="#1a1a1a" text-anchor="middle" style="white-space: pre;" direction="ltr">Session 1 — Mindset</text></g><g stroke-linecap="round"><g stroke-opacity="0.8" fill-opacity="0.8" transform="translate(275 290) rotate(0 -12.5 -92.5)"><path d="M0 0 C-4.17 -30.83, -20.83 -154.17, -25 -185 M0 0 C-4.17 -30.83, -20.83 -154.17, -25 -185" stroke="#2f9e44" stroke-width="1" fill="none"></path></g><g stroke-opacity="0.8" fill-opacity="0.8" transform="translate(275 290) rotate(0 -12.5 -92.5)"><path d="M-11.06 -158.44 C-13.85 -163.75, -16.64 -169.07, -25 -185 M-11.06 -158.44 C-14.63 -165.24, -18.2 -172.05, -25 -185" stroke="#2f9e44" stroke-width="1" fill="none"></path></g><g stroke-opacity="0.8" fill-opacity="0.8" transform="translate(275 290) rotate(0 -12.5 -92.5)"><path d="M-31.39 -155.69 C-30.11 -161.55, -28.84 -167.42, -25 -185 M-31.39 -155.69 C-29.75 -163.2, -28.12 -170.71, -25 -185" stroke="#2f9e44" stroke-width="1" fill="none"></path></g></g><g stroke-linecap="round" transform="translate(10 80) rotate(0 120 25)"><path d="M0 0 L240 0 L240 50 L0 50" stroke="none" stroke-width="0" fill="#d3f9d8"></path><path d="M0 0 C48.01 0, 96.03 0, 240 0 M0 0 C66.62 0, 133.24 0, 240 0 M240 0 C240 11.38, 240 22.75, 240 50 M240 0 C240 14.46, 240 28.91, 240 50 M240 50 C191.1 50, 142.2 50, 0 50 M240 50 C171.15 50, 102.31 50, 0 50 M0 50 C0 33.57, 0 17.15, 0 0 M0 50 C0 33.55, 0 17.1, 0 0" stroke="#2f9e44" stroke-width="1.5" fill="none"></path></g><g transform="translate(15 93) rotate(0 115 13)"><text x="115" y="NaN" font-family="Segoe UI Emoji" font-size="13px" fill="#1a1a1a" text-anchor="middle" style="white-space: pre;" direction="ltr">Session 2 — Technique</text></g><g stroke-linecap="round"><g stroke-opacity="0.8" fill-opacity="0.8" transform="translate(275 290) rotate(0 -12.5 -57.5)"><path d="M0 0 C-4.17 -19.17, -20.83 -95.83, -25 -115 M0 0 C-4.17 -19.17, -20.83 -95.83, -25 -115" stroke="#2f9e44" stroke-width="1" fill="none"></path></g><g stroke-opacity="0.8" fill-opacity="0.8" transform="translate(275 290) rotate(0 -12.5 -57.5)"><path d="M-8.99 -89.63 C-12.19 -94.71, -15.39 -99.78, -25 -115 M-8.99 -89.63 C-14.11 -97.76, -19.24 -105.88, -25 -115" stroke="#2f9e44" stroke-width="1" fill="none"></path></g><g stroke-opacity="0.8" fill-opacity="0.8" transform="translate(275 290) rotate(0 -12.5 -57.5)"><path d="M-29.04 -85.27 C-28.23 -91.22, -27.42 -97.17, -25 -115 M-29.04 -85.27 C-27.74 -94.79, -26.45 -104.31, -25 -115" stroke="#2f9e44" stroke-width="1" fill="none"></path></g></g><g stroke-linecap="round" transform="translate(10 150) rotate(0 120 25)"><path d="M0 0 L240 0 L240 50 L0 50" stroke="none" stroke-width="0" fill="#d3f9d8"></path><path d="M0 0 C48.02 0, 96.03 0, 240 0 M0 0 C81.99 0, 163.98 0, 240 0 M240 0 C240 14, 240 28, 240 50 M240 0 C240 14.72, 240 29.43, 240 50 M240 50 C179.82 50, 119.64 50, 0 50 M240 50 C188.5 50, 136.99 50, 0 50 M0 50 C0 30.55, 0 11.11, 0 0 M0 50 C0 38.99, 0 27.97, 0 0" stroke="#2f9e44" stroke-width="1.5" fill="none"></path></g><g transform="translate(15 163) rotate(0 115 13)"><text x="115" y="NaN" font-family="Segoe UI Emoji" font-size="13px" fill="#1a1a1a" text-anchor="middle" style="white-space: pre;" direction="ltr">Session 3 — Context</text></g><g stroke-linecap="round"><g stroke-opacity="0.8" fill-opacity="0.8" transform="translate(275 290) rotate(0 -12.5 -22.5)"><path d="M0 0 C-4.17 -7.5, -20.83 -37.5, -25 -45 M0 0 C-4.17 -7.5, -20.83 -37.5, -25 -45" stroke="#2f9e44" stroke-width="1" fill="none"></path></g><g stroke-opacity="0.8" fill-opacity="0.8" transform="translate(275 290) rotate(0 -12.5 -22.5)"><path d="M-5.56 -28.13 C-9.45 -31.51, -13.34 -34.88, -25 -45 M-5.56 -28.13 C-13.03 -34.62, -20.5 -41.1, -25 -45" stroke="#2f9e44" stroke-width="1" fill="none"></path></g><g stroke-opacity="0.8" fill-opacity="0.8" transform="translate(275 290) rotate(0 -12.5 -22.5)"><path d="M-20.95 -19.58 C-21.76 -24.67, -22.57 -29.75, -25 -45 M-20.95 -19.58 C-22.51 -29.35, -24.06 -39.12, -25 -45" stroke="#2f9e44" stroke-width="1" fill="none"></path></g></g><g stroke-linecap="round" transform="translate(10 220) rotate(0 120 25)"><path d="M0 0 L240 0 L240 50 L0 50" stroke="none" stroke-width="0" fill="#d3f9d8"></path><path d="M0 0 C48.02 0, 96.04 0, 240 0 M0 0 C49.36 0, 98.73 0, 240 0 M240 0 C240 16.63, 240 33.25, 240 50 M240 0 C240 14.98, 240 29.95, 240 50 M240 50 C168.53 50, 97.07 50, 0 50 M240 50 C157.84 50, 75.68 50, 0 50 M0 50 C0 37.53, 0 25.06, 0 0 M0 50 C0 34.42, 0 18.84, 0 0" stroke="#2f9e44" stroke-width="1.5" fill="none"></path></g><g transform="translate(15 233) rotate(0 115 13)"><text x="115" y="NaN" font-family="Segoe UI Emoji" font-size="13px" fill="#1a1a1a" text-anchor="middle" style="white-space: pre;" direction="ltr">Session 4 — Skill Building</text></g><g stroke-linecap="round"><g stroke-opacity="0.8" fill-opacity="0.8" transform="translate(275 290) rotate(0 -12.5 12.5)"><path d="M0 0 C-4.17 4.17, -20.83 20.83, -25 25 M0 0 C-4.17 4.17, -20.83 20.83, -25 25" stroke="#2f9e44" stroke-width="1" fill="none"></path></g><g stroke-opacity="0.8" fill-opacity="0.8" transform="translate(275 290) rotate(0 -12.5 12.5)"><path d="M-17.53 8.98 C-19.02 12.18, -20.52 15.39, -25 25 M-17.53 8.98 C-19.38 12.96, -21.24 16.94, -25 25" stroke="#2f9e44" stroke-width="1" fill="none"></path></g><g stroke-opacity="0.8" fill-opacity="0.8" transform="translate(275 290) rotate(0 -12.5 12.5)"><path d="M-8.98 17.53 C-12.18 19.02, -15.39 20.52, -25 25 M-8.98 17.53 C-12.96 19.38, -16.94 21.24, -25 25" stroke="#2f9e44" stroke-width="1" fill="none"></path></g></g><g stroke-linecap="round" transform="translate(10 290) rotate(0 120 25)"><path d="M0 0 L240 0 L240 50 L0 50" stroke="none" stroke-width="0" fill="#d3f9d8"></path><path d="M0 0 C48.02 0, 96.05 0, 240 0 M0 0 C64.74 0, 129.48 0, 240 0 M240 0 C240 19.25, 240 38.51, 240 50 M240 0 C240 15.24, 240 30.47, 240 50 M240 50 C157.25 50, 74.5 50, 0 50 M240 50 C175.18 50, 110.36 50, 0 50 M0 50 C0 34.51, 0 19.02, 0 0 M0 50 C0 39.86, 0 29.71, 0 0" stroke="#2f9e44" stroke-width="1.5" fill="none"></path></g><g transform="translate(15 303) rotate(0 115 13)"><text x="115" y="NaN" font-family="Segoe UI Emoji" font-size="13px" fill="#1a1a1a" text-anchor="middle" style="white-space: pre;" direction="ltr">Session 5 — AI Agent</text></g><g stroke-linecap="round"><g stroke-opacity="0.8" fill-opacity="0.8" transform="translate(275 290) rotate(0 -12.5 47.5)"><path d="M0 0 C-4.17 15.83, -20.83 79.17, -25 95 M0 0 C-4.17 15.83, -20.83 79.17, -25 95" stroke="#2f9e44" stroke-width="1" fill="none"></path></g><g stroke-opacity="0.8" fill-opacity="0.8" transform="translate(275 290) rotate(0 -12.5 47.5)"><path d="M-27.75 65.13 C-27.2 71.1, -26.65 77.08, -25 95 M-27.75 65.13 C-26.89 74.46, -26.03 83.79, -25 95" stroke="#2f9e44" stroke-width="1" fill="none"></path></g><g stroke-opacity="0.8" fill-opacity="0.8" transform="translate(275 290) rotate(0 -12.5 47.5)"><path d="M-7.9 70.35 C-11.32 75.28, -14.75 80.21, -25 95 M-7.9 70.35 C-13.24 78.05, -18.59 85.75, -25 95" stroke="#2f9e44" stroke-width="1" fill="none"></path></g></g><g stroke-linecap="round" transform="translate(10 360) rotate(0 120 25)"><path d="M0 0 L240 0 L240 50 L0 50" stroke="none" stroke-width="0" fill="#d3f9d8"></path><path d="M0 0 C48.03 0, 96.05 0, 240 0 M0 0 C80.11 0, 160.22 0, 240 0 M240 0 C240 11.88, 240 23.76, 240 50 M240 0 C240 15.49, 240 30.99, 240 50 M240 50 C145.97 50, 51.93 50, 0 50 M240 50 C144.52 50, 49.05 50, 0 50 M0 50 C0 31.49, 0 12.98, 0 0 M0 50 C0 35.29, 0 20.58, 0 0" stroke="#2f9e44" stroke-width="1.5" fill="none"></path></g><g transform="translate(15 373) rotate(0 115 13)"><text x="115" y="NaN" font-family="Segoe UI Emoji" font-size="13px" fill="#1a1a1a" text-anchor="middle" style="white-space: pre;" direction="ltr">Session 6 — Agentic AI</text></g><g stroke-linecap="round"><g transform="translate(1030 295) rotate(0 127.5 -2.5)"><path d="M0 0 C42.5 -0.83, 212.5 -4.17, 255 -5 M0 0 C42.5 -0.83, 212.5 -4.17, 255 -5" stroke="#c92a2a" stroke-width="2" fill="none"></path></g><g transform="translate(1030 295) rotate(0 127.5 -2.5)"><path d="M227.02 5.81 C232.62 3.65, 238.22 1.48, 255 -5 M227.02 5.81 C237.55 1.74, 248.09 -2.33, 255 -5" stroke="#c92a2a" stroke-width="2" fill="none"></path></g><g transform="translate(1030 295) rotate(0 127.5 -2.5)"><path d="M226.61 -14.71 C232.29 -12.76, 237.97 -10.82, 255 -5 M226.61 -14.71 C237.3 -11.05, 247.99 -7.4, 255 -5" stroke="#c92a2a" stroke-width="2" fill="none"></path></g></g><g stroke-linecap="round" transform="translate(1285 260) rotate(0 110 30)"><path d="M0 0 L220 0 L220 60 L0 60" stroke="none" stroke-width="0" fill="#ffc9c9"></path><path d="M0 0 C44.03 0, 88.06 0, 220 0 M0 0 C87.53 0, 175.06 0, 220 0 M220 0 C220 17.4, 220 34.81, 220 60 M220 0 C220 18.9, 220 37.81, 220 60 M220 60 C167.46 60, 114.92 60, 0 60 M220 60 C148.38 60, 76.76 60, 0 60 M0 60 C0 46.16, 0 32.32, 0 0 M0 60 C0 36.87, 0 13.75, 0 0" stroke="#c92a2a" stroke-width="2" fill="none"></path></g><g transform="translate(1295 277) rotate(0 100 14)"><text x="100" y="NaN" font-family="Segoe UI Emoji" font-size="17px" fill="#1a1a1a" text-anchor="middle" style="white-space: pre;" direction="ltr">Resources</text></g><g stroke-linecap="round"><g stroke-opacity="0.8" fill-opacity="0.8" transform="translate(1505 290) rotate(0 15 -42.5)"><path d="M0 0 C5 -14.17, 25 -70.83, 30 -85 M0 0 C5 -14.17, 25 -70.83, 30 -85" stroke="#c92a2a" stroke-width="1" fill="none"></path></g><g stroke-opacity="0.8" fill-opacity="0.8" transform="translate(1505 290) rotate(0 15 -42.5)"><path d="M30.29 -55 C30.23 -61.01, 30.18 -67.01, 30 -85 M30.29 -55 C30.22 -62.22, 30.15 -69.43, 30 -85" stroke="#c92a2a" stroke-width="1" fill="none"></path></g><g stroke-opacity="0.8" fill-opacity="0.8" transform="translate(1505 290) rotate(0 15 -42.5)"><path d="M10.94 -61.83 C14.76 -66.47, 18.57 -71.11, 30 -85 M10.94 -61.83 C15.53 -67.4, 20.11 -72.98, 30 -85" stroke="#c92a2a" stroke-width="1" fill="none"></path></g></g><g stroke-linecap="round" transform="translate(1535 180) rotate(0 107.5 25)"><path d="M0 0 L215 0 L215 50 L0 50" stroke="none" stroke-width="0" fill="#ffe3e3"></path><path d="M0 0 C43.03 0, 86.06 0, 215 0 M0 0 C56.31 0, 112.62 0, 215 0 M215 0 C215 17.13, 215 34.26, 215 50 M215 0 C215 16.01, 215 32.03, 215 50 M215 50 C153.54 50, 92.09 50, 0 50 M215 50 C160.54 50, 106.09 50, 0 50 M0 50 C0 35.45, 0 20.89, 0 0 M0 50 C0 36.16, 0 22.32, 0 0" stroke="#c92a2a" stroke-width="1.5" fill="none"></path></g><g transform="translate(1540 193) rotate(0 102.5 13)"><text x="102.5" y="NaN" font-family="Segoe UI Emoji" font-size="13px" fill="#1a1a1a" text-anchor="middle" style="white-space: pre;" direction="ltr">Workspace Setup</text></g><g stroke-linecap="round"><g stroke-opacity="0.8" fill-opacity="0.8" transform="translate(1505 290) rotate(0 15 -2.5)"><path d="M0 0 C5 -0.83, 25 -4.17, 30 -5 M0 0 C5 -0.83, 25 -4.17, 30 -5" stroke="#c92a2a" stroke-width="1" fill="none"></path></g><g stroke-opacity="0.8" fill-opacity="0.8" transform="translate(1505 290) rotate(0 15 -2.5)"><path d="M16.76 2.48 C19.41 0.98, 22.06 -0.51, 30 -5 M16.76 2.48 C20.79 0.2, 24.83 -2.08, 30 -5" stroke="#c92a2a" stroke-width="1" fill="none"></path></g><g stroke-opacity="0.8" fill-opacity="0.8" transform="translate(1505 290) rotate(0 15 -2.5)"><path d="M15.05 -7.78 C18.04 -7.22, 21.03 -6.67, 30 -5 M15.05 -7.78 C19.6 -6.93, 24.16 -6.09, 30 -5" stroke="#c92a2a" stroke-width="1" fill="none"></path></g></g><g stroke-linecap="round" transform="translate(1535 260) rotate(0 107.5 25)"><path d="M0 0 L215 0 L215 50 L0 50" stroke="none" stroke-width="0" fill="#ffe3e3"></path><path d="M0 0 C43.03 0, 86.07 0, 215 0 M0 0 C70.08 0, 140.16 0, 215 0 M215 0 C215 19.75, 215 39.51, 215 50 M215 0 C215 16.27, 215 32.55, 215 50 M215 50 C143.43 50, 71.87 50, 0 50 M215 50 C133.08 50, 51.16 50, 0 50 M0 50 C0 32.42, 0 14.85, 0 0 M0 50 C0 31.6, 0 13.19, 0 0" stroke="#c92a2a" stroke-width="1.5" fill="none"></path></g><g transform="translate(1540 273) rotate(0 102.5 13)"><text x="102.5" y="NaN" font-family="Segoe UI Emoji" font-size="13px" fill="#1a1a1a" text-anchor="middle" style="white-space: pre;" direction="ltr">Prompt Library</text></g><g stroke-linecap="round"><g stroke-opacity="0.8" fill-opacity="0.8" transform="translate(1505 290) rotate(0 15 37.5)"><path d="M0 0 C5 12.5, 25 62.5, 30 75 M0 0 C5 12.5, 25 62.5, 30 75" stroke="#c92a2a" stroke-width="1" fill="none"></path></g><g stroke-opacity="0.8" fill-opacity="0.8" transform="translate(1505 290) rotate(0 15 37.5)"><path d="M10 52.64 C14.01 57.11, 18.01 61.59, 30 75 M10 52.64 C17.38 60.88, 24.75 69.13, 30 75" stroke="#c92a2a" stroke-width="1" fill="none"></path></g><g stroke-opacity="0.8" fill-opacity="0.8" transform="translate(1505 290) rotate(0 15 37.5)"><path d="M29.06 45.01 C29.25 51.02, 29.43 57.02, 30 75 M29.06 45.01 C29.4 56.07, 29.75 67.12, 30 75" stroke="#c92a2a" stroke-width="1" fill="none"></path></g></g><g stroke-linecap="round" transform="translate(1535 340) rotate(0 107.5 25)"><path d="M0 0 L215 0 L215 50 L0 50" stroke="none" stroke-width="0" fill="#ffe3e3"></path><path d="M0 0 C43.04 0, 86.07 0, 215 0 M0 0 C83.85 0, 167.71 0, 215 0 M215 0 C215 12.38, 215 24.76, 215 50 M215 0 C215 16.53, 215 33.06, 215 50 M215 50 C133.33 50, 51.65 50, 0 50 M215 50 C148.62 50, 82.23 50, 0 50 M0 50 C0 39.4, 0 28.81, 0 0 M0 50 C0 37.03, 0 24.06, 0 0" stroke="#c92a2a" stroke-width="1.5" fill="none"></path></g><g transform="translate(1540 353) rotate(0 102.5 13)"><text x="102.5" y="NaN" font-family="Segoe UI Emoji" font-size="13px" fill="#1a1a1a" text-anchor="middle" style="white-space: pre;" direction="ltr">Cheat Sheets</text></g></svg>